<svg width="30" height="30" viewBox="0 0 30 30" fill="none" xmlns="http://www.w3.org/2000/svg">
<g clip-path="url(#clip0_37_116)">
<path d="M15 11.28C14.2643 11.28 13.545 11.4982 12.9333 11.9069C12.3215 12.3157 11.8447 12.8967 11.5632 13.5764C11.2816 14.2562 11.2079 15.0041 11.3515 15.7257C11.495 16.4473 11.8493 17.1102 12.3696 17.6304C12.8898 18.1507 13.5527 18.505 14.2743 18.6485C14.9959 18.7921 15.7438 18.7184 16.4236 18.4368C17.1033 18.1553 17.6843 17.6785 18.0931 17.0667C18.5018 16.455 18.72 15.7357 18.72 15C18.72 14.5115 18.6238 14.0277 18.4368 13.5764C18.2499 13.1251 17.9759 12.715 17.6304 12.3696C17.285 12.0241 16.8749 11.7501 16.4236 11.5632C15.9723 11.3762 15.4885 11.28 15 11.28ZM29.895 7.605C29.8881 6.44655 29.6747 5.2986 29.265 4.215C28.9639 3.42189 28.4981 2.70164 27.8982 2.10178C27.2984 1.50192 26.5781 1.03608 25.785 0.735C24.7014 0.325271 23.5535 0.111936 22.395 0.105C20.46 -1.00583e-07 19.89 0 15 0C10.11 0 9.54 -1.00583e-07 7.605 0.105C6.44655 0.111936 5.2986 0.325271 4.215 0.735C3.42189 1.03608 2.70164 1.50192 2.10178 2.10178C1.50192 2.70164 1.03608 3.42189 0.735 4.215C0.325271 5.2986 0.111936 6.44655 0.105 7.605C-1.00583e-07 9.54 0 10.11 0 15C0 19.89 -1.00583e-07 20.46 0.105 22.395C0.122295 23.5573 0.335275 24.7084 0.735 25.8C1.03306 26.5903 1.49873 27.3068 2.1 27.9C2.6976 28.5031 3.4193 28.9689 4.215 29.265C5.2986 29.6747 6.44655 29.8881 7.605 29.895C9.54 30 10.11 30 15 30C19.89 30 20.46 30 22.395 29.895C23.5535 29.8881 24.7014 29.6747 25.785 29.265C26.5807 28.9689 27.3024 28.5031 27.9 27.9C28.5013 27.3068 28.9669 26.5903 29.265 25.8C29.6734 24.7108 29.8867 23.5582 29.895 22.395C30 20.46 30 19.89 30 15C30 10.11 30 9.54 29.895 7.605ZM26.085 19.605C26.0377 20.5308 25.8401 21.4427 25.5 22.305C25.2088 23.0245 24.7759 23.6782 24.227 24.227C23.6782 24.7759 23.0245 25.2088 22.305 25.5C21.4345 25.8212 20.5175 25.9985 19.59 26.025H10.41C9.48251 25.9985 8.56552 25.8212 7.695 25.5C6.95092 25.224 6.27908 24.783 5.73 24.21C5.18612 23.6722 4.76633 23.022 4.5 22.305C4.17861 21.4351 4.0062 20.5172 3.99 19.59V10.41C4.0062 9.48277 4.17861 8.5649 4.5 7.695C4.77596 6.95092 5.21701 6.27908 5.79 5.73C6.33079 5.18979 6.9801 4.77055 7.695 4.5C8.56552 4.17884 9.48251 4.00152 10.41 3.975H19.59C20.5175 4.00152 21.4345 4.17884 22.305 4.5C23.0491 4.77596 23.7209 5.21701 24.27 5.79C24.8139 6.32782 25.2337 6.97798 25.5 7.695C25.8212 8.56552 25.9985 9.48251 26.025 10.41V15C26.025 18.09 26.13 18.405 26.085 19.59V19.605ZM23.685 8.445C23.5064 7.96048 23.2248 7.52046 22.8597 7.15532C22.4945 6.79018 22.0545 6.50859 21.57 6.33C20.9047 6.09939 20.204 5.98769 19.5 6H10.5C9.7924 6.00692 9.0916 6.13895 8.43 6.39C7.95289 6.56048 7.51754 6.83057 7.15288 7.1823C6.78821 7.53403 6.50259 7.95936 6.315 8.43C6.09796 9.09824 5.99156 9.79745 6 10.5V19.5C6.01569 20.2067 6.14745 20.906 6.39 21.57C6.5686 22.0545 6.85018 22.4945 7.21532 22.8597C7.58046 23.2248 8.02048 23.5064 8.505 23.685C9.14521 23.9196 9.81857 24.0513 10.5 24.075H19.5C20.2076 24.0681 20.9084 23.9361 21.57 23.685C22.0545 23.5064 22.4945 23.2248 22.8597 22.8597C23.2248 22.4945 23.5064 22.0545 23.685 21.57C23.9361 20.9084 24.0681 20.2076 24.075 19.5V10.5C24.0747 9.79176 23.9425 9.08978 23.685 8.43V8.445ZM15 20.73C14.2482 20.73 13.5038 20.5817 12.8095 20.2935C12.1151 20.0054 11.4845 19.5831 10.9536 19.0508C10.4227 18.5185 10.002 17.8868 9.71572 17.1916C9.42939 16.4965 9.28303 15.7518 9.285 15C9.285 13.8661 9.62144 12.7576 10.2517 11.815C10.882 10.8724 11.7778 10.138 12.8257 9.70475C13.8736 9.2715 15.0265 9.15891 16.1384 9.38122C17.2503 9.60353 18.2713 10.1508 19.072 10.9536C19.8728 11.7565 20.4173 12.7789 20.6367 13.8914C20.8561 15.0039 20.7405 16.1564 20.3045 17.2032C19.8685 18.2499 19.1318 19.1438 18.1875 19.7716C17.2432 20.3994 16.1339 20.733 15 20.73ZM21 10.395C20.6684 10.3599 20.3615 10.2033 20.1385 9.95546C19.9155 9.70758 19.7921 9.38594 19.7921 9.0525C19.7921 8.71906 19.9155 8.39742 20.1385 8.14954C20.3615 7.90167 20.6684 7.7451 21 7.71C21.3316 7.7451 21.6385 7.90167 21.8615 8.14954C22.0845 8.39742 22.2079 8.71906 22.2079 9.0525C22.2079 9.38594 22.0845 9.70758 21.8615 9.95546C21.6385 10.2033 21.3316 10.3599 21 10.395Z" fill="url(#paint0_linear_37_116)"/>
</g>
<defs>
<linearGradient id="paint0_linear_37_116" x1="15" y1="-8.9407e-07" x2="15" y2="30" gradientUnits="userSpaceOnUse">
<stop stop-color="#9EFF8E"/>
<stop offset="1" stop-color="#8EFB7C"/>
</linearGradient>
<clipPath id="clip0_37_116">
<rect width="30" height="30" fill="white"/>
</clipPath>
</defs>
</svg>
