<svg width="30" height="30" viewBox="0 0 30 30" fill="none" xmlns="http://www.w3.org/2000/svg">
<path fill-rule="evenodd" clip-rule="evenodd" d="M13.75 2.5C12.7554 2.5 11.8016 2.89509 11.0983 3.59835C10.3951 4.30161 10 5.25544 10 6.25V23.75C10 24.7446 10.3951 25.6984 11.0983 26.4017C11.8016 27.1049 12.7554 27.5 13.75 27.5H21.25C22.2446 27.5 23.1984 27.1049 23.9017 26.4017C24.6049 25.6984 25 24.7446 25 23.75V6.25C25 5.25544 24.6049 4.30161 23.9017 3.59835C23.1984 2.89509 22.2446 2.5 21.25 2.5H13.75ZM15.3663 10.3663C15.6007 10.1319 15.9185 10.0003 16.25 10.0003C16.5815 10.0003 16.8993 10.1319 17.1337 10.3663L20.8838 14.1163C21.1181 14.3507 21.2497 14.6685 21.2497 15C21.2497 15.3315 21.1181 15.6493 20.8838 15.8837L17.1337 19.6337C16.898 19.8614 16.5822 19.9874 16.2545 19.9846C15.9268 19.9817 15.6132 19.8503 15.3815 19.6185C15.1497 19.3868 15.0183 19.0732 15.0154 18.7455C15.0126 18.4178 15.1386 18.102 15.3663 17.8663L16.9825 16.25H6.25C5.91848 16.25 5.60054 16.1183 5.36612 15.8839C5.1317 15.6495 5 15.3315 5 15C5 14.6685 5.1317 14.3505 5.36612 14.1161C5.60054 13.8817 5.91848 13.75 6.25 13.75H16.9825L15.3663 12.1337C15.1319 11.8993 15.0003 11.5815 15.0003 11.25C15.0003 10.9185 15.1319 10.6007 15.3663 10.3663Z" fill="white"/>
</svg>
