<svg width="30" height="30" viewBox="0 0 30 30" fill="none" xmlns="http://www.w3.org/2000/svg">
<g clip-path="url(#clip0_37_114)">
<path fill-rule="evenodd" clip-rule="evenodd" d="M30 4.23608C30 1.89656 28.1034 0 25.7639 0H4.23608C1.89656 0 0 1.89656 0 4.23608V25.7639C0 28.1035 1.89656 30 4.23608 30H25.7639C28.1034 30 30 28.1035 30 25.7639V4.23608ZM24.8535 13.0843C22.9179 13.106 21.1143 12.5208 19.5308 11.4371V19.0449C19.5308 22.4261 17.2163 25.3306 13.9434 26.0892C9.47839 27.1079 5.69854 23.8784 5.2218 20.0203C4.72328 16.1622 7.18388 12.7809 10.9553 12.0223C11.6922 11.8706 12.8006 11.8706 13.3724 12.0007V16.0755C13.1965 16.0322 13.0317 15.9888 12.8583 15.9672C11.3844 15.707 9.95693 16.444 9.3717 17.7878C8.78651 19.1317 9.1782 20.6922 10.3703 21.6027C11.3673 22.3829 12.4735 22.4912 13.6005 21.971C14.7277 21.4726 15.3334 20.5622 15.4634 19.3268C15.4851 19.1535 15.4839 18.9583 15.4839 18.7632V4.13272C15.4839 3.72094 15.4871 3.7389 15.8989 3.7389H19.1284C19.3669 3.7389 19.4537 3.77321 19.4753 4.05514C19.6486 6.5694 21.5575 8.71065 24.0067 9.03581C24.2669 9.07912 24.5455 9.0963 24.8535 9.11794V13.0843Z" fill="url(#paint0_linear_37_114)"/>
</g>
<defs>
<linearGradient id="paint0_linear_37_114" x1="15" y1="-8.9407e-07" x2="15" y2="30" gradientUnits="userSpaceOnUse">
<stop stop-color="#9EFF8E"/>
<stop offset="1" stop-color="#8EFB7C"/>
</linearGradient>
<clipPath id="clip0_37_114">
<rect width="30" height="30" fill="white"/>
</clipPath>
</defs>
</svg>
