<svg width="30" height="30" viewBox="0 0 30 30" fill="none" xmlns="http://www.w3.org/2000/svg">
<g clip-path="url(#clip0_37_118)">
<path d="M5.64 0C4.14418 0 2.70962 0.594213 1.65192 1.65192C0.594213 2.70962 0 4.14418 0 5.64V24.36C0 25.8558 0.594213 27.2904 1.65192 28.3481C2.70962 29.4058 4.14418 30 5.64 30H24.36C25.1007 30 25.8341 29.8541 26.5183 29.5707C27.2026 29.2872 27.8244 28.8718 28.3481 28.3481C28.8718 27.8244 29.2872 27.2026 29.5707 26.5183C29.8541 25.8341 30 25.1007 30 24.36V5.64C30 4.89934 29.8541 4.16594 29.5707 3.48167C29.2872 2.79739 28.8718 2.17564 28.3481 1.65192C27.8244 1.1282 27.2026 0.712756 26.5183 0.429319C25.8341 0.145883 25.1007 0 24.36 0H5.64ZM8.4225 7.0395H21.5775C22.1913 7.0397 22.799 7.16079 23.366 7.39586C23.9331 7.63093 24.4482 7.97538 24.8821 8.40954C25.316 8.8437 25.6601 9.35907 25.8948 9.92622C26.1295 10.4934 26.2502 11.1012 26.25 11.715V18.288C26.25 19.5274 25.7578 20.716 24.8815 21.5925C24.0053 22.469 22.8169 22.9616 21.5775 22.962H8.4225C7.80858 22.9618 7.2007 22.8407 6.63361 22.6055C6.06651 22.3703 5.55129 22.0257 5.11739 21.5914C4.68349 21.1571 4.3394 20.6416 4.10478 20.0742C3.87016 19.5069 3.74961 18.8989 3.75 18.285V11.715C3.75 10.4756 4.24223 9.28701 5.11845 8.41051C5.99467 7.53401 7.18314 7.0399 8.4225 7.0395ZM12.1425 11.7345C12.0797 11.7379 12.0206 11.7651 11.9772 11.8105C11.9337 11.8559 11.9092 11.9162 11.9085 11.979V18.0315C11.9079 18.0737 11.9182 18.1152 11.9384 18.1523C11.9585 18.1893 11.9879 18.2205 12.0235 18.243C12.0592 18.2654 12.1001 18.2783 12.1422 18.2804C12.1843 18.2825 12.2262 18.2738 12.264 18.255L18.4155 15.3195C18.4568 15.2995 18.4918 15.2684 18.5164 15.2296C18.5411 15.1909 18.5545 15.146 18.5551 15.1001C18.5557 15.0542 18.5436 15.009 18.52 14.9696C18.4964 14.9302 18.4623 14.8981 18.4215 14.877L12.27 11.76C12.2312 11.7397 12.1877 11.7303 12.144 11.733L12.1425 11.7345Z" fill="url(#paint0_linear_37_118)"/>
</g>
<defs>
<linearGradient id="paint0_linear_37_118" x1="15" y1="-8.9407e-07" x2="15" y2="30" gradientUnits="userSpaceOnUse">
<stop stop-color="#9EFF8E"/>
<stop offset="1" stop-color="#8EFB7C"/>
</linearGradient>
<clipPath id="clip0_37_118">
<rect width="30" height="30" fill="white"/>
</clipPath>
</defs>
</svg>
