<svg width="24" height="25" viewBox="0 0 24 25" fill="none" xmlns="http://www.w3.org/2000/svg">
<path fill-rule="evenodd" clip-rule="evenodd" d="M7.52248 2.0625C7.87248 1.325 8.62748 0.8125 9.49998 0.8125H14.5C15.3725 0.8125 16.1262 1.325 16.4775 2.0625C17.3312 2.07 17.9975 2.10875 18.5925 2.34125C19.3028 2.61909 19.9205 3.09127 20.375 3.70375C20.8337 4.32125 21.05 5.1125 21.345 6.20125L22.2725 9.60375L22.6225 10.655L22.6525 10.6925C23.7787 12.135 23.2425 14.28 22.17 18.5687C21.4875 21.2975 21.1475 22.6612 20.13 23.4562C19.1125 24.25 17.7062 24.25 14.8937 24.25H9.10623C6.29373 24.25 4.88748 24.25 3.86998 23.4562C2.85248 22.6612 2.51123 21.2975 1.82998 18.5687C0.75748 14.28 0.22123 12.135 1.34748 10.6925L1.37748 10.655L1.72748 9.60375L2.65498 6.20125C2.95123 5.1125 3.16748 4.32 3.62498 3.7025C4.07964 3.09048 4.69735 2.61875 5.40748 2.34125C6.00248 2.10875 6.66748 2.06875 7.52248 2.0625ZM7.52498 3.94125C6.69748 3.95 6.36498 3.98125 6.08998 4.08875C5.70744 4.23835 5.37474 4.49264 5.12998 4.8225C4.90998 5.11875 4.77998 5.5325 4.41748 6.86625L3.70498 9.4775C4.97998 9.25 6.72248 9.25 9.10498 9.25H14.8937C17.2775 9.25 19.0187 9.25 20.2937 9.475L19.5825 6.86375C19.22 5.53 19.09 5.11625 18.87 4.82C18.6252 4.49014 18.2925 4.23585 17.91 4.08625C17.635 3.97875 17.3025 3.9475 16.475 3.93875C16.2975 4.31231 16.0177 4.6279 15.6682 4.84892C15.3186 5.06995 14.9136 5.18734 14.5 5.1875H9.49998C9.08654 5.18746 8.68157 5.07024 8.33202 4.84945C7.98247 4.62866 7.70264 4.31458 7.52498 3.94125Z" fill="white"/>
</svg>
