<svg width="121" height="32" fill="none" xmlns="http://www.w3.org/2000/svg"><path d="M12.642 8.604c-.103.924-.42 1.736-.952 2.436-.532.69-1.232 1.227-2.1 1.61-.859.383-1.848.574-2.968.574-1.223 0-2.291-.229-3.206-.686-.915-.457-1.629-1.097-2.142-1.918C.77 9.799.518 8.842.518 7.75s.252-2.049.756-2.87c.513-.821 1.227-1.46 2.142-1.918.915-.457 1.983-.686 3.206-.686 1.12 0 2.11.191 2.968.574.868.383 1.568.924 2.1 1.624.532.69.85 1.498.952 2.422H9.73a2.434 2.434 0 0 0-.546-1.134 2.579 2.579 0 0 0-1.064-.728c-.43-.168-.929-.252-1.498-.252-.653 0-1.218.121-1.694.364-.476.233-.84.574-1.092 1.022-.252.439-.378.966-.378 1.582 0 .616.126 1.148.378 1.596.252.439.616.78 1.092 1.022.476.233 1.04.35 1.694.35.57 0 1.069-.08 1.498-.238a2.47 2.47 0 0 0 1.064-.714c.27-.317.453-.705.546-1.162h2.912zm5.931 4.62c-1.026 0-1.922-.173-2.688-.518-.765-.355-1.362-.85-1.792-1.484-.429-.644-.644-1.381-.644-2.212 0-.85.215-1.591.644-2.226.43-.635 1.027-1.13 1.792-1.484.766-.355 1.662-.532 2.688-.532 1.018 0 1.909.177 2.674.532.775.355 1.377.85 1.806 1.484.43.635.644 1.377.644 2.226 0 .83-.214 1.568-.644 2.212-.429.635-1.031 1.13-1.806 1.484-.765.345-1.656.518-2.674.518zm0-2.114c.467 0 .864-.084 1.19-.252.336-.168.593-.41.77-.728.178-.317.266-.69.266-1.12 0-.448-.088-.826-.266-1.134a1.761 1.761 0 0 0-.77-.728c-.326-.168-.723-.252-1.19-.252-.466 0-.868.084-1.204.252-.336.168-.592.41-.77.728-.177.308-.266.681-.266 1.12 0 .439.089.817.266 1.134.178.317.434.56.77.728.336.168.738.252 1.204.252zM32.125 13l-.364-2.884.378-1.106-.378-1.106.364-2.898h2.968l-.504 3.99.504 4.004h-2.968zm.672-3.99c-.13.84-.392 1.577-.784 2.212a4.226 4.226 0 0 1-1.47 1.484c-.588.345-1.26.518-2.016.518-.784 0-1.475-.173-2.072-.518a3.732 3.732 0 0 1-1.386-1.484c-.336-.644-.504-1.381-.504-2.212 0-.85.168-1.591.504-2.226A3.732 3.732 0 0 1 26.455 5.3c.598-.355 1.288-.532 2.072-.532.756 0 1.428.177 2.016.532a4.219 4.219 0 0 1 1.484 1.47c.392.625.649 1.372.77 2.24zm-5.334 0c0 .392.08.742.238 1.05.168.308.397.55.686.728.29.168.62.252.994.252.392 0 .76-.084 1.106-.252.346-.177.649-.42.91-.728.262-.308.458-.658.588-1.05a3.119 3.119 0 0 0-.588-1.064 2.959 2.959 0 0 0-.91-.728 2.387 2.387 0 0 0-1.106-.266c-.373 0-.704.089-.994.266-.29.177-.518.42-.686.728a2.29 2.29 0 0 0-.238 1.064zm18.47.616a3.457 3.457 0 0 1-.784 1.89c-.448.541-1.031.961-1.75 1.26-.71.299-1.507.448-2.394.448-.98 0-1.843-.177-2.59-.532-.746-.355-1.33-.85-1.75-1.484-.42-.635-.63-1.367-.63-2.198 0-.84.21-1.577.63-2.212.42-.635 1.004-1.13 1.75-1.484.747-.364 1.61-.546 2.59-.546.887 0 1.685.154 2.394.462.719.299 1.302.719 1.75 1.26a3.4 3.4 0 0 1 .784 1.89h-2.842c-.102-.476-.34-.84-.714-1.092-.373-.261-.83-.392-1.372-.392-.42 0-.788.084-1.106.252-.308.159-.55.397-.728.714-.168.308-.252.69-.252 1.148 0 .448.084.83.252 1.148.178.308.42.546.728.714.318.159.686.238 1.106.238.542 0 .999-.135 1.372-.406.383-.27.62-.63.714-1.078h2.842zm1.13-7.406h2.87V13h-2.87V2.22zm5.796 2.548c.775 0 1.428.154 1.96.462.542.308.957.742 1.246 1.302.29.56.434 1.223.434 1.988V13h-2.87V8.94c0-.597-.154-1.055-.462-1.372-.298-.317-.732-.476-1.302-.476-.392 0-.737.084-1.036.252-.289.168-.513.406-.672.714-.149.308-.224.672-.224 1.092l-.896-.462c.112-.85.35-1.563.714-2.142.364-.588.812-1.031 1.344-1.33a3.592 3.592 0 0 1 1.764-.448zM8.092 24.862l.238-.546c.812.019 1.48.145 2.002.378.532.224.929.541 1.19.952.261.401.392.868.392 1.4 0 .57-.13 1.078-.392 1.526-.261.439-.653.789-1.176 1.05-.513.252-1.157.378-1.932.378H.658l.812-5.39-.812-5.11h7.476c.97 0 1.727.229 2.268.686.541.448.812 1.073.812 1.876 0 .439-.103.859-.308 1.26-.205.401-.537.742-.994 1.022-.448.27-1.055.443-1.82.518zm-4.564 4.466-1.12-1.358H7.63c.42 0 .747-.103.98-.308.233-.205.35-.49.35-.854s-.126-.653-.378-.868c-.252-.224-.625-.336-1.12-.336H3.15v-1.988h3.92c.336 0 .616-.098.84-.294.233-.205.35-.48.35-.826a.883.883 0 0 0-.294-.686c-.196-.187-.476-.28-.84-.28H2.422l1.106-1.358.714 4.438-.714 4.718zm14.264.896c-.97 0-1.838-.177-2.604-.532-.756-.355-1.353-.85-1.792-1.484-.438-.644-.658-1.39-.658-2.24 0-.83.21-1.559.63-2.184.42-.635.994-1.13 1.722-1.484.738-.355 1.568-.532 2.492-.532.962 0 1.778.21 2.45.63.682.41 1.204.994 1.568 1.75.374.756.56 1.647.56 2.674h-7.112V25.1h5.502l-.938.602c-.037-.41-.14-.756-.308-1.036a1.686 1.686 0 0 0-.672-.658c-.27-.15-.597-.224-.98-.224-.42 0-.779.084-1.078.252a1.802 1.802 0 0 0-.7.7 2 2 0 0 0-.252 1.022c0 .504.112.933.336 1.288.234.345.57.611 1.008.798.448.187.994.28 1.638.28.588 0 1.172-.075 1.75-.224a6.441 6.441 0 0 0 1.596-.658v1.82c-.55.373-1.18.663-1.89.868-.7.196-1.456.294-2.268.294zm5.173-8.218h2.87l.518 3.192V30h-2.856v-5.236l-.532-2.758zm6.328-.238c.765 0 1.418.154 1.96.462.54.308.952.742 1.232 1.302.289.56.434 1.223.434 1.988V30h-2.856v-4.06c0-.597-.154-1.055-.462-1.372-.3-.317-.733-.476-1.302-.476-.392 0-.738.084-1.036.252-.29.168-.514.406-.672.714-.16.308-.238.672-.238 1.092l-.882-.462c.112-.85.35-1.563.714-2.142.364-.588.812-1.031 1.344-1.33a3.541 3.541 0 0 1 1.764-.448zm4.691.238h2.87l.518 3.192V30h-2.856v-5.236l-.532-2.758zm6.328-.238c.766 0 1.419.154 1.96.462.541.308.952.742 1.232 1.302.29.56.434 1.223.434 1.988V30h-2.856v-4.06c0-.597-.154-1.055-.462-1.372-.298-.317-.732-.476-1.302-.476-.392 0-.737.084-1.036.252-.29.168-.513.406-.672.714-.158.308-.238.672-.238 1.092l-.882-.462c.112-.85.35-1.563.714-2.142.364-.588.812-1.031 1.344-1.33a3.541 3.541 0 0 1 1.764-.448zm9.787 8.456c-.97 0-1.839-.177-2.604-.532-.756-.355-1.353-.85-1.792-1.484-.439-.644-.658-1.39-.658-2.24 0-.83.21-1.559.63-2.184.42-.635.994-1.13 1.722-1.484.737-.355 1.568-.532 2.492-.532.961 0 1.778.21 2.45.63.681.41 1.204.994 1.568 1.75.373.756.56 1.647.56 2.674h-7.112V25.1h5.502l-.938.602c-.037-.41-.14-.756-.308-1.036a1.686 1.686 0 0 0-.672-.658c-.27-.15-.597-.224-.98-.224-.42 0-.78.084-1.078.252a1.802 1.802 0 0 0-.7.7 2 2 0 0 0-.252 1.022c0 .504.112.933.336 1.288.233.345.57.611 1.008.798.448.187.994.28 1.638.28.588 0 1.171-.075 1.75-.224a6.441 6.441 0 0 0 1.596-.658v1.82c-.55.373-1.18.663-1.89.868-.7.196-1.456.294-2.268.294zm4.727-6.104v-1.246l1.624-.658 1.232-2.366h1.624v2.156h3.36v2.114h-3.36v2.352c0 .579.117.985.35 1.218.233.233.658.35 1.274.35.392 0 .737-.033 1.036-.098.308-.075.588-.168.84-.28v2.156c-.28.103-.648.196-1.106.28a7.812 7.812 0 0 1-1.414.126c-.886 0-1.614-.135-2.184-.406-.56-.27-.975-.658-1.246-1.162-.27-.513-.406-1.11-.406-1.792V24.12h-1.624zm9.136-4.9h2.87V30h-2.87V19.22zm5.796 2.548c.774 0 1.428.154 1.96.462.541.308.956.742 1.246 1.302.29.56.434 1.223.434 1.988V30h-2.87v-4.06c0-.597-.154-1.055-.462-1.372-.299-.317-.733-.476-1.302-.476-.392 0-.738.084-1.036.252-.29.168-.514.406-.672.714-.15.308-.224.672-.224 1.092l-.896-.462c.112-.85.35-1.563.714-2.142.364-.588.812-1.031 1.344-1.33a3.592 3.592 0 0 1 1.764-.448z" fill="#fff"/><path d="m114.276 7-3.817-6H90l3.818 6h20.458zM90 31h20.459l3.817-6H93.818L90 31zm7.633-18h20.459L120 16l-1.908 3H97.633l1.908-3-1.908-3z" stroke="url(#a)"/><defs><linearGradient id="a" x1="105" y1="1" x2="105" y2="31" gradientUnits="userSpaceOnUse"><stop stop-color="#9EFF8E" stop-opacity=".9"/><stop offset="1" stop-color="#79FE63" stop-opacity=".9"/></linearGradient></defs></svg>